<svg id="rd-brand-h" data-name="Layer 1" fill="white"
    xmlns="http://www.w3.org/2000/svg" viewBox="0 0 600 73.611">

    <g id="resultados">
        <path id="r" class="cls-1" d="M0,3.6A107.287,107.287,0,0,1,16.26,2.483c8.01,0,13.617,1.2,17.461,4.243,3.2,2.562,4.967,6.33,4.967,11.3a14.325,14.325,0,0,1-9.533,13.3v.24c3.766,1.521,5.848,5.126,7.209,10.092,1.681,6.087,3.365,13.135,4.405,15.218h-12.5c-.881-1.521-2.161-5.928-3.764-12.575-1.441-6.729-3.764-8.571-8.731-8.652H12.1V56.87H0ZM12.095,26.833H16.9c6.087,0,9.691-3.042,9.691-7.77,0-4.966-3.362-7.448-8.971-7.529a30.669,30.669,0,0,0-5.526.4v14.9Z" transform="translate(0 0)"></path>
        <path id="e" class="cls-1" d="M54.281,41.17c.4,5.048,5.367,7.45,11.053,7.45a34.447,34.447,0,0,0,10.813-1.6l1.6,8.25a38.631,38.631,0,0,1-14.178,2.4c-13.3,0-20.905-7.69-20.905-19.945,0-9.931,6.167-20.905,19.784-20.905,12.655,0,17.462,9.851,17.462,19.543a28.953,28.953,0,0,1-.4,4.8H54.281Zm14.337-8.328c0-2.965-1.281-7.931-6.889-7.931-5.126,0-7.209,4.647-7.529,7.931Z" transform="translate(0 0)"></path>
        <path id="s1" class="cls-1" d="M85.351,46.218A23.808,23.808,0,0,0,95.843,49.18c3.685,0,5.207-1.281,5.207-3.284s-1.2-2.962-5.767-4.486c-8.09-2.721-11.214-7.129-11.133-11.773,0-7.29,6.247-12.816,15.94-12.816a26.287,26.287,0,0,1,11.053,2.241l-2.161,8.411a19.224,19.224,0,0,0-8.49-2.242c-2.964,0-4.647,1.2-4.647,3.2,0,1.842,1.521,2.8,6.328,4.486,7.449,2.562,10.574,6.328,10.653,12.093,0,7.29-5.767,12.658-16.981,12.658a27.739,27.739,0,0,1-12.655-2.724Z" transform="translate(0 0)"></path>
        <path id="u" class="cls-1" d="M154.875,44.294c0,5.126.16,9.291.32,12.575H144.622l-.56-5.526h-.24a13.974,13.974,0,0,1-12.256,6.408c-7.93,0-13.777-4.968-13.777-17.063V17.7h12.256V38.767c0,5.687,1.841,9.132,6.087,9.132a6.555,6.555,0,0,0,6.087-4.243,6.806,6.806,0,0,0,.4-2.642V17.7h12.254V44.294Z" transform="translate(0 0)"></path>
        <rect id="l" class="cls-1" x="162.684" width="12.175" height="56.87"></rect>
        <path id="t" class="cls-1" d="M196.62,6.488V17.7h8.731v8.971H196.62V40.852c0,4.727,1.121,6.888,4.806,6.888a20.049,20.049,0,0,0,3.6-.32l.08,9.21a23.9,23.9,0,0,1-7.931,1.041,12.661,12.661,0,0,1-9.131-3.365c-2.241-2.321-3.362-6.087-3.362-11.615V26.672h-5.208V17.7h5.207V9.212Z" transform="translate(0 0)"></path>
        <path id="a" class="cls-1" d="M232.976,56.87l-.72-3.925h-.24c-2.562,3.122-6.568,4.807-11.214,4.807-7.93,0-12.655-5.767-12.655-12.017,0-10.172,9.131-15.057,22.988-14.977V30.2c0-2.081-1.121-5.046-7.129-5.046a22.046,22.046,0,0,0-10.813,2.962l-2.241-7.85a32.344,32.344,0,0,1,15.22-3.442c13.056,0,17.221,7.69,17.221,16.9V47.338a60.728,60.728,0,0,0,.56,9.532H232.976Zm-1.441-18.5c-6.408-.08-11.375,1.441-11.375,6.167,0,3.122,2.081,4.647,4.806,4.647a6.653,6.653,0,0,0,6.329-4.486,8.762,8.762,0,0,0,.24-2.081V38.367Z" transform="translate(0 0)"></path>
        <path id="d" class="cls-1" d="M288.86,0V45.175c0,4.405.16,9.052.32,11.695H278.367l-.56-5.767h-.16c-2.482,4.405-7.209,6.649-12.254,6.649-9.293,0-16.741-7.931-16.741-20.106-.08-13.215,8.17-20.825,17.541-20.825,4.806,0,8.571,1.681,10.333,4.405h.16V0H288.86ZM276.685,34.281a19.826,19.826,0,0,0-.16-2.161,7.315,7.315,0,0,0-7.129-6.008c-5.527,0-8.411,4.966-8.411,11.135,0,6.647,3.284,10.813,8.33,10.813a7.127,7.127,0,0,0,7.049-5.848,10.366,10.366,0,0,0,.32-2.8V34.281Z" transform="translate(0 0)"></path>
        <path id="o" class="cls-1" d="M335.284,36.845c0,14.339-10.172,20.908-20.666,20.908-11.454,0-20.264-7.532-20.264-20.186s8.33-20.745,20.9-20.745c12.015,0,20.026,8.25,20.026,20.023m-28.356.4c0,6.727,2.8,11.773,8.011,11.773,4.723,0,7.77-4.723,7.77-11.773,0-5.848-2.244-11.775-7.77-11.775-5.848,0-8.013,6.01-8.013,11.777Z" transform="translate(0 0)"></path>
        <path id="s2" class="cls-1" d="M340.432,46.218a23.821,23.821,0,0,0,10.494,2.962c3.682,0,5.207-1.281,5.207-3.284s-1.2-2.962-5.768-4.486c-8.089-2.721-11.215-7.129-11.134-11.773,0-7.29,6.249-12.816,15.942-12.816a26.288,26.288,0,0,1,11.052,2.241l-2.161,8.411a19.238,19.238,0,0,0-8.491-2.242c-2.961,0-4.646,1.2-4.646,3.2,0,1.842,1.521,2.8,6.327,4.486,7.451,2.562,10.574,6.328,10.655,12.093,0,7.29-5.767,12.658-16.982,12.658a27.738,27.738,0,0,1-12.655-2.724Z" transform="translate(0 0)"></path>
    </g>
    <g id="digitais">
        <path id="d-2" data-name="d" class="cls-2" d="M376.491,3.6a99.78,99.78,0,0,1,14.816-1.121c10.014,0,17.143,2.321,21.867,6.729,4.807,4.405,7.61,10.652,7.61,19.383,0,8.813-2.722,16.02-7.77,20.986-5.046,5.048-13.376,7.77-23.869,7.77a112.215,112.215,0,0,1-12.655-.641V3.6Zm6.968,47.74a44.013,44.013,0,0,0,7.048.4c14.9,0,22.989-8.33,22.989-22.908.08-12.736-7.13-20.827-21.868-20.827a39.674,39.674,0,0,0-8.169.721V51.344Z" transform="translate(0 0)"></path>
        <path id="i1" class="cls-2" d="M435.105,7.21a4.371,4.371,0,0,1-8.735.189c0-.063,0-.126,0-.189A4.3,4.3,0,0,1,430.554,2.8c.075,0,.15,0,.224,0a4.185,4.185,0,0,1,4.328,4.405M427.255,18.1H434.3V56.87h-7.048Z" transform="translate(0 0)"></path>
        <path id="g" class="cls-2" d="M476.74,18.1c-.161,2.8-.32,5.926-.32,10.652V51.263c0,8.891-1.761,14.336-5.526,17.7-3.764,3.525-9.212,4.647-14.1,4.647-4.647,0-9.772-1.121-12.9-3.2l1.761-5.367a21.853,21.853,0,0,0,11.376,3.042c7.208,0,12.495-3.764,12.495-13.534V50.221h-.16c-2.161,3.606-6.328,6.488-12.334,6.488-9.614,0-16.5-8.169-16.5-18.9,0-13.137,8.571-20.586,17.462-20.586,6.729,0,10.413,3.525,12.094,6.729h.161l.32-5.848h6.167Zm-7.29,15.3A10.316,10.316,0,0,0,459.2,22.749c-6.727,0-11.534,5.689-11.534,14.66,0,7.607,3.845,13.937,11.454,13.937a10.305,10.305,0,0,0,9.773-7.21,12.294,12.294,0,0,0,.56-3.764V33.4Z" transform="translate(0 0)"></path>
        <path id="i2" class="cls-2" d="M493.159,7.21a4.37,4.37,0,0,1-8.734.189c0-.063,0-.126,0-.189A4.3,4.3,0,0,1,488.608,2.8c.075,0,.149,0,.224,0a4.185,4.185,0,0,1,4.327,4.405M485.309,18.1h7.048V56.87h-7.048Z" transform="translate(0 0)"></path>
        <path id="t-2" data-name="t" class="cls-2" d="M509.907,9.192V18.1H520v5.363H509.907V44.374c0,4.8,1.36,7.529,5.283,7.529a15.624,15.624,0,0,0,4.086-.48l.32,5.287a17.271,17.271,0,0,1-6.249.961c-3.284,0-5.928-1.04-7.609-2.965-2-2.081-2.725-5.526-2.725-10.092V23.468h-6.006V18.1h6.006V11.033Z" transform="translate(0 0)"></path>
        <path id="a-2" data-name="a" class="cls-2" d="M547.342,56.87l-.56-4.885h-.24a14.448,14.448,0,0,1-11.856,5.767c-7.85,0-11.854-5.528-11.854-11.135,0-9.371,8.33-14.5,23.308-14.417v-.8c0-3.2-.881-8.971-8.811-8.971a19.317,19.317,0,0,0-10.092,2.882l-1.6-4.643a24.069,24.069,0,0,1,12.736-3.445c11.856,0,14.738,8.089,14.738,15.859V47.576a54.664,54.664,0,0,0,.64,9.293h-6.406ZM546.3,37.086c-7.69-.16-16.419,1.2-16.419,8.73,0,4.566,3.042,6.73,6.647,6.73a9.647,9.647,0,0,0,9.373-6.488,7.406,7.406,0,0,0,.4-2.244V37.086Z" transform="translate(0 0)"></path>
        <path id="i3" class="cls-2" d="M569.492,7.21a4.37,4.37,0,0,1-8.734.189c0-.063,0-.126,0-.189A4.3,4.3,0,0,1,564.94,2.8c.075,0,.149,0,.224,0a4.186,4.186,0,0,1,4.327,4.405M561.64,18.1h7.048V56.87H561.64Z" transform="translate(0 0)"></path>
        <path id="s" class="cls-2" d="M576.369,49.661a18.473,18.473,0,0,0,9.293,2.8c5.126,0,7.529-2.562,7.529-5.767,0-3.365-2-5.207-7.209-7.129-6.968-2.482-10.253-6.328-10.253-10.974,0-6.247,5.049-11.374,13.376-11.374a19.367,19.367,0,0,1,9.534,2.4l-1.764,5.126a15.09,15.09,0,0,0-7.929-2.241c-4.166,0-6.488,2.4-6.488,5.287,0,3.2,2.321,4.643,7.368,6.567C596.555,36.922,600,40.289,600,46.056c0,6.807-5.287,11.615-14.5,11.615a22.127,22.127,0,0,1-10.893-2.642Z" transform="translate(0 0)"></path>
    </g>
</svg>
